<svg xmlns="http://www.w3.org/2000/svg" width="230.248" height="11.1" viewBox="0 0 230.248 11.1">
  <g id="vuesax_bold_add-circle" data-name="vuesax/bold/add-circle" transform="translate(-112.45 -258.45)">
    <g id="add-circle" transform="translate(108 252)">
      <path id="Vector" d="M14,10.75H10.75V14a.75.75,0,0,1-1.5,0V10.75H6a.75.75,0,0,1,0-1.5H9.25V6a.75.75,0,0,1,1.5,0V9.25H14a.75.75,0,0,1,0,1.5Z" transform="translate(219.148 2)" fill="#ffff01" stroke="#1effd6" stroke-width="1.6"/>
      <path id="Path_22667" data-name="Path 22667" d="M.734-.5l218.13.012" transform="translate(9.978 12.5)" fill="none" stroke="#1effd6" stroke-linecap="round" stroke-width="3.2"/>
      <path id="Vector-2" data-name="Vector" d="M14,10.75H10.75V14a.75.75,0,0,1-1.5,0V10.75H6a.75.75,0,0,1,0-1.5H9.25V6a.75.75,0,0,1,1.5,0V9.25H14a.75.75,0,0,1,0,1.5Z" transform="translate(0 2)" fill="#ffff01" stroke="#1effd6" stroke-width="1.6"/>
    </g>
  </g>
</svg>
