<svg xmlns="http://www.w3.org/2000/svg" width="19.4" height="19.4" viewBox="0 0 19.4 19.4">
  <g id="vuesax_bold_magicpen" data-name="vuesax/bold/magicpen" transform="translate(-300 -188)">
    <g id="magicpen" transform="translate(300 188)">
      <path id="Vector" d="M3.629,2.926l-1.2,1.2L0,1.706,1.2.5A1.715,1.715,0,0,1,3.629,2.926Z" transform="translate(12.133 3.136)" fill="#292d32"/>
      <path id="Vector-2" data-name="Vector" d="M11.666,2.425l-8.738,8.73A1.715,1.715,0,1,1,.5,8.73L9.241,0Z" transform="translate(2.326 5.416)" fill="#292d32"/>
      <path id="Vector-3" data-name="Vector" d="M2.688,1.516,3.02.392a.313.313,0,0,0-.073-.3A.308.308,0,0,0,2.64.013L1.516.344.392.013a.313.313,0,0,0-.3.073.3.3,0,0,0-.073.3L.344,1.516.013,2.64a.313.313,0,0,0,.073.3.3.3,0,0,0,.3.073l1.132-.323L2.64,3.02a.344.344,0,0,0,.089.016.327.327,0,0,0,.218-.089.3.3,0,0,0,.073-.3Z" transform="translate(5.355 1.313)" fill="#292d32"/>
      <path id="Vector-4" data-name="Vector" d="M2.688,1.516,3.02.392a.313.313,0,0,0-.073-.3.3.3,0,0,0-.3-.073L1.516.344.392.013a.313.313,0,0,0-.3.073.3.3,0,0,0-.073.3L.344,1.516.013,2.64a.313.313,0,0,0,.073.3.3.3,0,0,0,.3.073L1.508,2.68l1.124.331a.3.3,0,0,0,.089.008.327.327,0,0,0,.218-.089.3.3,0,0,0,.073-.3Z" transform="translate(2.121 6.163)" fill="#292d32"/>
      <path id="Vector-5" data-name="Vector" d="M2.673,1.509,3,.386a.313.313,0,0,0-.073-.3.3.3,0,0,0-.3-.073L1.509.345.386.014a.313.313,0,0,0-.3.073.3.3,0,0,0-.073.3L.345,1.509.014,2.633a.313.313,0,0,0,.073.3A.3.3,0,0,0,.386,3l1.124-.331L2.633,3a.3.3,0,0,0,.089.008.327.327,0,0,0,.218-.089.3.3,0,0,0,.073-.3Z" transform="translate(14.261 10.212)" fill="#292d32"/>
      <path id="Vector-6" data-name="Vector" d="M0,0H19.4V19.4H0Z" fill="none" opacity="0"/>
    </g>
  </g>
</svg>
