<svg id="Group_488402" data-name="Group 488402" xmlns="http://www.w3.org/2000/svg" width="17.047" height="17.049" viewBox="0 0 17.047 17.049">
  <path id="Path_180763" data-name="Path 180763" d="M87.029,145.621a7.123,7.123,0,1,1,1.687-10.335c.452-.27.485-.341.384-.818a1.118,1.118,0,0,1,.7-1.254,1.087,1.087,0,0,1,1.374.489.442.442,0,0,0,.488.276c.432-.013.866,0,1.3,0,.019,0,.039.018.074.036v.536c-.478,0-.961.006-1.445,0a.349.349,0,0,0-.382.222,1.055,1.055,0,0,1-1.34.564c-.412-.151-.482.218-.678.379-.053.043,0,.275.061.39a7.048,7.048,0,0,1-.014,7.139c-.048.087-.1.172-.162.278.086.09.166.178.251.263q1.625,1.626,3.25,3.253a1.489,1.489,0,0,1-.755,2.551,1.48,1.48,0,0,1-1.384-.481q-1.6-1.6-3.2-3.207A2.122,2.122,0,0,1,87.029,145.621Zm2.617-5.964a6.547,6.547,0,1,0-6.475,6.542A6.543,6.543,0,0,0,89.647,139.657Zm-.98,6.845c.767.775,1.526,1.564,2.312,2.326a.89.89,0,0,0,1.234-.042.9.9,0,0,0,.037-1.259c-.352-.383-.731-.741-1.1-1.11l-1.2-1.21Zm-.458-.438,1.254-1.255-.692-.687-1.254,1.229Zm2-11.237a.573.573,0,0,0,.568-.571.6.6,0,0,0-.557-.559.572.572,0,0,0-.573.565A.546.546,0,0,0,90.213,134.827Z" transform="translate(-76.008 -132.57)" fill="#8e92a4"/>
  <path id="Path_180764" data-name="Path 180764" d="M104.772,155.417a5.967,5.967,0,0,1-11.934.018,5.967,5.967,0,1,1,11.934-.018Zm-1.281-2.638c-.146.175-.256.33-.39.46a.325.325,0,0,0-.094.4,1.048,1.048,0,0,1-.274,1.162,1.125,1.125,0,0,1-1.2.258.368.368,0,0,0-.306.066q-.792.762-1.555,1.555a.409.409,0,0,0-.078.334,1.15,1.15,0,0,1-.4,1.307,1.127,1.127,0,0,1-1.335,0,1.154,1.154,0,0,1-.4-1.305.418.418,0,0,0-.078-.335q-.461-.5-.965-.966a.412.412,0,0,0-.332-.079,1.158,1.158,0,0,1-1.43-.6c-.042-.076-.121-.182-.188-.186-.338-.019-.678-.009-1.01-.009a5.386,5.386,0,1,0,10.035-2.074Zm-9.905,1.516c.278,0,.554.014.827-.008a.359.359,0,0,0,.231-.174,1.149,1.149,0,0,1,1.485-.585,1.164,1.164,0,0,1,.627,1.442.416.416,0,0,0,.075.335q.461.5.965.966a.566.566,0,0,0,.336.083c.26.01.52.006.78-.005a.572.572,0,0,0,.338-.073q.794-.76,1.556-1.553a.367.367,0,0,0,.074-.3,1.13,1.13,0,0,1,.25-1.2,1.105,1.105,0,0,1,1.195-.282.369.369,0,0,0,.292-.025c.215-.171.406-.37.6-.549a5.3,5.3,0,0,0-5.736-2.165A5.218,5.218,0,0,0,93.586,154.295Zm8.4-.849a.575.575,0,0,0-.615.522.594.594,0,0,0,.54.607.574.574,0,0,0,.588-.515A.55.55,0,0,0,101.985,153.446Zm-5.744,1.12A.565.565,0,0,0,95.67,154a.59.59,0,0,0-.554.557.562.562,0,0,0,.567.567A.535.535,0,0,0,96.242,154.566Zm2.288,2.282a.576.576,0,0,0-.565.575.568.568,0,0,0,.546.557.576.576,0,0,0,.586-.555A.585.585,0,0,0,98.53,156.848Z" transform="translate(-91.717 -148.327)" fill="#8e92a4"/>
</svg>
