<svg xmlns="http://www.w3.org/2000/svg" width="38.696" height="38.683" viewBox="0 0 38.696 38.683">
  <path id="Path_42114" data-name="Path 42114" d="M81.64,158.648a6.831,6.831,0,0,1-.57.791q-7.123,7.139-14.253,14.273a2.552,2.552,0,0,1-2.667.782,2.464,2.464,0,0,1-1.312-3.832,5.847,5.847,0,0,1,.655-.728q7.022-7.027,14.047-14.051c.191-.191.373-.392.588-.618-.219-.231-.4-.433-.593-.626q-7.157-7.16-14.316-14.316a2.514,2.514,0,0,1,1.243-4.356,2.613,2.613,0,0,1,2.424.924q6.485,6.5,12.979,12.983c.587.587,1.164,1.183,1.812,1.842.245-.233.46-.429.665-.634Q89.42,144,96.5,136.924a2.6,2.6,0,0,1,2.63-.913,2.485,2.485,0,0,1,1.259,4.116c-.151.169-.318.323-.478.483q-7,7-14,13.994c-.195.194-.417.361-.679.585.251.271.426.472.614.66,4.717,4.72,9.448,9.426,14.137,14.174a4.143,4.143,0,0,1,1.027,1.854,2.294,2.294,0,0,1-1.285,2.433,2.528,2.528,0,0,1-2.76-.267c-.213-.176-.4-.381-.6-.577q-7-7-13.994-14C82.175,159.275,82,159.057,81.64,158.648Z" transform="translate(-62.359 -135.921)" fill="#fff"/>
</svg>
