<svg xmlns="http://www.w3.org/2000/svg" width="17.317" height="11.07" viewBox="0 0 17.317 11.07">
  <path id="Path_180821" data-name="Path 180821" d="M100.678,197.862H96.6c-.222-1.328.584-2.585,2.192-3.461-.969-1.116-1.018-2.186-.138-3.015a1.95,1.95,0,0,1,2.705.051c.809.812.736,1.92-.2,2.949l1.054.627,1.5-.829a2.472,2.472,0,0,1-1.1-2.345,2.382,2.382,0,0,1,.869-1.63,2.473,2.473,0,1,1,2.929,3.976l1.522.835,1.075-.643a1.963,1.963,0,0,1-.725-1.98,1.835,1.835,0,0,1,.739-1.148,1.933,1.933,0,0,1,2.617.268c.748.828.649,1.881-.285,2.886a3.507,3.507,0,0,1,2.258,3.458h-4.139c0,.3,0,.562,0,.824a1.764,1.764,0,0,1-1.749,1.77q-2.648.019-5.3,0a1.739,1.739,0,0,1-1.764-1.712C100.667,198.467,100.678,198.19,100.678,197.862Zm4.393,2.059h0c.876,0,1.753.006,2.629,0a1.165,1.165,0,0,0,1.193-.994,3.782,3.782,0,0,0-.037-1.251,3.864,3.864,0,0,0-7.648.955,1.24,1.24,0,0,0,1.332,1.292C103.385,199.924,104.228,199.921,105.071,199.921Zm-1.919-7.838a1.921,1.921,0,1,0,1.936-1.9A1.9,1.9,0,0,0,103.152,192.083Zm9.865,5.239a2.81,2.81,0,0,0-4.592-1.921c.3.618.584,1.2.882,1.777a.341.341,0,0,0,.254.137c.444.014.888.006,1.332.006Zm-11.25-1.937a2.768,2.768,0,0,0-2.826-.43,2.8,2.8,0,0,0-1.827,2.352h3.593Zm-.4-2.574a1.41,1.41,0,0,0-1.381-1.417,1.436,1.436,0,0,0-1.423,1.42,1.408,1.408,0,0,0,1.409,1.386A1.383,1.383,0,0,0,101.367,192.812Zm8.782,1.388a1.414,1.414,0,0,0,1.461-1.37,1.443,1.443,0,0,0-1.378-1.434,1.411,1.411,0,0,0-1.428,1.369A1.372,1.372,0,0,0,110.149,194.2Z" transform="translate(-96.437 -189.518)" fill="#8e92a4" stroke="#8e92a4" stroke-width="0.25"/>
</svg>
