<svg xmlns="http://www.w3.org/2000/svg" width="17.06" height="17.071" viewBox="0 0 17.06 17.071">
  <g id="Group_488398" data-name="Group 488398" transform="translate(0.001)">
    <path id="Path_180789" data-name="Path 180789" d="M112.488,141.358c.065.656.125,1.261.185,1.866.017.174.108.243.288.23a1.989,1.989,0,0,1,.564.009c.115.025.208.15.311.229-.105.088-.206.244-.316.251-.453.029-.91.012-1.365.012q-2.132,0-4.264,0a.619.619,0,0,1-.316-.057.274.274,0,0,1-.1-.244.354.354,0,0,1,.236-.187c.207-.029.424.007.63-.025.1-.016.249-.119.26-.2.082-.612.136-1.227.2-1.885h-1.843a.681.681,0,0,1-.295-.016.368.368,0,0,1-.179-.239c-.007-.066.091-.182.166-.21a1.06,1.06,0,0,1,.361-.029h10.76c.746,0,.9-.153.9-.9,0-.233,0-.465,0-.721H102.627c0,.369-.019.723.005,1.074s.256.535.671.541c.644.009,1.288,0,1.932,0a.646.646,0,0,1,.263.01,1.522,1.522,0,0,1,.277.225c-.094.086-.181.236-.284.247a8.676,8.676,0,0,1-.932.013c-.455,0-.911.007-1.366,0a1.07,1.07,0,0,1-1.076-1.084q-.008-4.947,0-9.895a1.064,1.064,0,0,1,1.133-1.089q3.431-.007,6.863,0h.337c-.117-.263-.372-.565-.3-.742a2.122,2.122,0,0,1,.678-.79c.439-.354.625.15.928.337l.674-.28c.018-1.142.273-.892,1.138-.91.454-.009.514.1.555.905l.346.145.328.142c.671-.547.712-.558,1.021-.272.748.694.748.694.225,1.465.635,0,1.239,0,1.843,0a2.087,2.087,0,0,1,.5.036,1.066,1.066,0,0,1,.792,1.032q.006,4.964,0,9.928a1.069,1.069,0,0,1-1.121,1.072c-1.71,0-3.42,0-5.13,0Zm-8.836-2.684h13.966a1.132,1.132,0,0,0,.017-.126q0-3.663,0-7.327c0-.309-.067-.342-.431-.242-.055.537-.128.673-.468.644a.506.506,0,0,0-.625.445,1.66,1.66,0,0,1-.121.279c.08.084.155.164.232.243.311.321.312.5,0,.818-.124.127-.249.253-.377.377-.279.27-.523.3-.759-.01-.28-.365-.513-.1-.78-.033-.292.068-.192.281-.2.45-.018.389-.155.536-.551.549-.188.006-.378.006-.566,0-.394-.013-.584-.167-.534-.549.059-.448-.287-.434-.52-.577s-.343.046-.463.172c-.172.18-.4.3-.586.14a2.909,2.909,0,0,1-.756-.854c-.154-.307.244-.473.4-.7a.33.33,0,0,0,.019-.047.837.837,0,0,1-.076-.164c-.091-.388-.28-.607-.731-.54-.222.033-.356-.146-.376-.378-.009-.1-.018-.191-.028-.3-.121-.007-.219-.018-.318-.018-1.665,0-3.33.007-5-.007-.318,0-.387.109-.385.406.012,1.876.006,3.752.006,5.628Zm12.264-5.708c-.535-.306-.43-.675-.254-1.182a.832.832,0,0,1,1.011-.648v-.631c-.093,0-.159-.01-.226-.011-.507-.007-.534-.027-.708-.519a.7.7,0,0,0-.074-.184.7.7,0,0,1,.2-1.1c.014-.011.016-.038.035-.086l-.45-.424c-.307.465-.658.491-1.182.265-.5-.217-.774-.46-.675-1.018h-.642c.135.6-.2.8-.678,1.023a.8.8,0,0,1-1.144-.221l-.5.448c.558.3.448.668.265,1.174a.838.838,0,0,1-1.036.652c0,.148,0,.247,0,.346s.015.19.023.278c.775.089.77.091,1.171,1.047.181.431-.23.568-.364.794l.47.476c.282-.518.646-.424,1.142-.24.534.2.753.475.669,1.013h.636c-.1-.553.133-.806.646-1.009s.876-.253,1.182.245Zm-5.593-3.059-.026-.137h-6.846c-.647,0-.834.185-.835.829q0,3.862,0,7.723c0,.118.01.236.016.353h.532v-.421q0-3.5,0-6.991c0-.653.18-.835.822-.835,1.687,0,3.373,0,5.06,0,.108,0,.293-.029.311-.085.105-.335.358-.349.636-.358A1.708,1.708,0,0,0,110.323,129.907Zm-1.034,11.469-.168,2.055h3.046L112,141.376Zm9.367-2.688c.007-.114.016-.191.016-.268q0-3.943,0-7.886c0-.066,0-.133-.009-.2a.529.529,0,0,0-.494-.54c-.636-.033-1.276-.01-1.914-.01l-.027.119a1.358,1.358,0,0,0,.3.078c.285.009.564,0,.661.363.011.042.119.076.185.082.6.055.748.213.749.811q0,3.527,0,7.054v.4Z" transform="translate(-102.115 -126.889)" fill="#8e92a4"/>
    <path id="Path_180790" data-name="Path 180790" d="M218.847,320.721a2.206,2.206,0,0,1-.526-.011c-.109-.027-.191-.159-.285-.244.085-.083.164-.232.255-.239a6.722,6.722,0,0,1,1.089,0c.1.008.179.169.267.26-.09.078-.17.2-.273.224A2.475,2.475,0,0,1,218.847,320.721Z" transform="translate(-210.312 -307.322)" fill="#8e92a4"/>
    <path id="Path_180793" data-name="Path 180793" d="M133.877,205.607c-.073-.084-.131-.16-.2-.229a.392.392,0,0,1,.009-.634c.1-.092.187-.189.282-.282.3-.294.4-.285.732-.025a.541.541,0,0,0,.367.052.269.269,0,0,0,.256-.313c0-.383.122-.482.506-.49.144,0,.288,0,.433,0,.3,0,.462.153.438.453-.017.206.078.28.249.359a.314.314,0,0,0,.427-.1.389.389,0,0,1,.633,0l.33.329a.394.394,0,0,1-.011.656.292.292,0,0,0-.078.4c.073.173.146.27.356.255.318-.023.463.163.468.469,0,.155,0,.311,0,.466-.009.293-.159.469-.456.446-.229-.018-.292.105-.376.277s-.015.282.106.394a.389.389,0,0,1,0,.633c-.094.094-.187.19-.282.283-.3.289-.434.305-.724.013-.149-.151-.262-.092-.409-.037s-.23.118-.23.3c0,.387-.116.488-.495.5-.144,0-.288,0-.433,0a.389.389,0,0,1-.449-.448c.012-.225-.1-.293-.274-.377s-.283-.016-.4.106a.383.383,0,0,1-.63,0c-.092-.1-.189-.187-.282-.283-.292-.3-.307-.428-.014-.722.149-.149.092-.263.037-.412a.284.284,0,0,0-.308-.221c-.382,0-.484-.122-.49-.5,0-.111,0-.222,0-.333,0-.434.086-.543.516-.543C133.81,206.048,133.716,205.753,133.877,205.607Zm4.081,2.835a.915.915,0,0,1,.591-1.561v-.337c-.487.1-.606-.211-.771-.56a.638.638,0,0,1,.187-.922l-.3-.265c-.268.427-.57.285-.936.162a.656.656,0,0,1-.536-.786l-.38.022c.151.667-.4.655-.744.852-.325.188-.513-.044-.733-.237l-.277.218.146.094c.311.733.117,1.25-.755,1.517l.016.251a.924.924,0,0,1,.635,1.55l.226.214a.915.915,0,0,1,1.541.621h.3a.924.924,0,0,1,1.539-.639Z" transform="translate(-130.91 -198.567)" fill="#8e92a4"/>
    <path id="Path_180794" data-name="Path 180794" d="M242.487,156.85a1.946,1.946,0,0,1,1.973,1.9,1.971,1.971,0,0,1-1.788,1.973,1.951,1.951,0,0,1-2.064-1.632,1.911,1.911,0,0,1,.2-1.221c.089-.17.192-.368.426-.234.212.122.105.3.021.462a1.414,1.414,0,0,0,.306,1.756,1.436,1.436,0,1,0,.731-2.489c-.195.034-.433.118-.471-.18s.223-.281.412-.317A1.542,1.542,0,0,1,242.487,156.85Z" transform="translate(-231.355 -154.853)" fill="#8e92a4"/>
    <path id="Path_180795" data-name="Path 180795" d="M255.428,170.829a1,1,0,0,1,1.009,1.011,1.013,1.013,0,0,1-2.026-.007A1.006,1.006,0,0,1,255.428,170.829Zm.5,1.008a.5.5,0,1,0-1-.024.5.5,0,0,0,1,.024Z" transform="translate(-244.263 -167.901)" fill="#8e92a4"/>
    <path id="Path_180796" data-name="Path 180796" d="M159.027,231.051a1.316,1.316,0,1,1,1.305,1.34A1.293,1.293,0,0,1,159.027,231.051Zm2.138.038a.841.841,0,0,0-.812-.839.827.827,0,1,0,.812.839Z" transform="translate(-155.235 -222.908)" fill="#8e92a4"/>
  </g>
</svg>
