<svg id="Group_488404" data-name="Group 488404" xmlns="http://www.w3.org/2000/svg" width="17.048" height="17.065" viewBox="0 0 17.048 17.065">
  <path id="Path_180766" data-name="Path 180766" d="M123.214,145.109a4.559,4.559,0,0,0-4.268,4.23h.351q2.9,0,5.795,0a.65.65,0,0,1,.377.073.4.4,0,0,1,.114.339.448.448,0,0,1-.271.238,1.268,1.268,0,0,1-.4.012h-6.128c-.44,0-.529-.09-.525-.521a5.259,5.259,0,0,1,4.574-5.007c.485-.046.974-.039,1.461-.064a.953.953,0,0,0,.384-.07c.139-.073.33-.181.358-.305a.539.539,0,0,0-.245-.674,2.963,2.963,0,0,1-1.211-1.379.476.476,0,0,0-.523-.317,1.948,1.948,0,0,1-2.03-1.725,1.846,1.846,0,0,1,.686-1.745.529.529,0,0,0,.216-.441,4.856,4.856,0,0,1,9.709-.091.663.663,0,0,0,.244.564,1.9,1.9,0,0,1,.559,2.142,1.943,1.943,0,0,1-1.84,1.291.7.7,0,0,0-.672.412,8.236,8.236,0,0,1-1.108,1.26c-.247.241-.448.532-.285.771a.924.924,0,0,0,.612.3c.516.057,1.043.023,1.56.073a5.215,5.215,0,0,1,4.54,4.454c.028.22.047.441.058.662a.351.351,0,0,1-.4.413h-6.561c-.238,0-.394-.1-.382-.352s.2-.314.421-.314q2.914,0,5.828,0h.394a4.518,4.518,0,0,0-4.205-4.226c-.584.861-1.149,1.7-1.725,2.541-.171.248-.374.247-.61.014-.424-.42-.842-.846-1.285-1.292-.43.432-.835.841-1.242,1.247-.313.312-.481.294-.735-.077-.451-.659-.9-1.318-1.347-1.98C123.371,145.428,123.3,145.275,123.214,145.109Zm5.944-3.13c-.306,0-.615-.019-.918.009a.5.5,0,0,0-.362.194,1.229,1.229,0,0,1-2.283-.474.939.939,0,0,1,.591-.981,1.461,1.461,0,0,1,1.551.237.788.788,0,0,0,.839.349,5.527,5.527,0,0,1,.732,0,.265.265,0,0,0,.327-.275c.043-.736.074-1.473.105-2.117l-2.213-.848a4.866,4.866,0,0,1-3.726.644,15.622,15.622,0,0,0,.217,2.515,2.655,2.655,0,0,0,2.3,2.036A2.7,2.7,0,0,0,129.158,141.978Zm.512-3.864A.609.609,0,0,0,129.7,138a2.92,2.92,0,1,0-5.837-.211c0,.2.072.266.26.3a3.938,3.938,0,0,0,3.076-.615.617.617,0,0,1,.852.016A3.2,3.2,0,0,0,129.669,138.114Zm1.3-.383a4.129,4.129,0,0,0-2.331-3.675,4.195,4.195,0,0,0-6.037,3.671h.6a3.651,3.651,0,0,1,1.029-2.366,3.511,3.511,0,0,1,2.333-1.071,3.446,3.446,0,0,1,2.177.579,3.641,3.641,0,0,1,1.639,2.862Zm-7.785.685a1.266,1.266,0,0,0-1.34.662,1.21,1.21,0,0,0,.089,1.376,1.29,1.29,0,0,0,1.251.534Zm7.217,2.558a1.294,1.294,0,0,0,1.221-2.076,1.2,1.2,0,0,0-1.221-.465Zm-4.106,4.9c-.306-.3-.625-.619-.952-.929a.238.238,0,0,0-.2-.057c-.339.139-.672.3-1.022.452l1.107,1.621Zm1-.036,1.086,1.077,1.07-1.575c-.345-.157-.66-.31-.984-.439a.3.3,0,0,0-.255.064C127.883,145.262,127.569,145.573,127.294,145.837Zm.553-1.912H125.7c.026.149,0,.385.1.516.285.359.625.675.995,1.061C127.121,144.879,127.968,144.717,127.846,143.925Zm-1.053-1.936v-.013c.077,0,.176.03.228-.006.123-.086.288-.189.317-.313.045-.2-.107-.33-.315-.34a1.43,1.43,0,0,0-.525.028.407.407,0,0,0-.23.3c0,.1.13.231.233.305C126.573,142,126.7,141.979,126.794,141.989Z" transform="translate(-118.263 -132.948)" fill="#8e92a4"/>
  <path id="Path_180767" data-name="Path 180767" d="M241.985,378.265c.083.131.246.276.227.39a.469.469,0,0,1-.333.3c-.087.011-.281-.193-.284-.305s.153-.256.24-.384Z" transform="translate(-233.379 -361.921)" fill="#8e92a4"/>
</svg>
