<svg xmlns="http://www.w3.org/2000/svg" width="98.06" height="67.416" viewBox="0 0 98.06 67.416">
  <g id="Group_488338" data-name="Group 488338" transform="translate(0 -3)">
    <path id="Path_180743" data-name="Path 180743" d="M93.892,9.5c-2.66-4.731-5.547-5.6-11.424-5.933C76.6,3.165,61.833,3,49.042,3c-12.815,0-27.585.165-33.451.558C9.726,3.895,6.834,4.759,4.149,9.5,1.41,14.222,0,22.361,0,36.69v.049C0,51.006,1.41,59.207,4.149,63.883c2.684,4.731,5.571,5.589,11.436,5.988,5.871.343,20.642.545,33.457.545,12.791,0,27.555-.2,33.432-.539,5.877-.4,8.764-1.256,11.424-5.988,2.764-4.676,4.161-12.876,4.161-27.144V36.7c0-14.335-1.4-22.474-4.168-27.2Z" transform="translate(0 0)" fill="#f44336" fill-rule="evenodd"/>
    <path id="Path_180744" data-name="Path 180744" d="M6,42.272V5.5L36.644,23.886Z" transform="translate(30.772 12.822)" fill="#fafafa" fill-rule="evenodd"/>
  </g>
</svg>
